<?xml version="1.0" encoding="utf-8"?>
<!-- Generator: Adobe Illustrator 19.1.0, SVG Export Plug-In . SVG Version: 6.00 Build 0)  -->
<svg version="1.1" id="Layer_1" xmlns="http://www.w3.org/2000/svg" xmlns:xlink="http://www.w3.org/1999/xlink" x="0px" y="0px"
	 viewBox="0 0 792 612" style="enable-background:new 0 0 792 612;" xml:space="preserve">
<style type="text/css">
	.st0{fill:none;stroke:#000000;stroke-miterlimit:10;}
	.st1{fill:none;stroke:#000000;stroke-width:2;stroke-miterlimit:10;}
	.st2{fill:#FFFFFF;stroke:#000000;stroke-width:2;stroke-miterlimit:10;}
	.st3{fill:#FFFFFF;stroke:#000000;stroke-miterlimit:10;}
	.st4{font-family:'LaoMN';}
	.st5{font-size:14.9399px;}
	.st6{fill:#FFFFFF;stroke:#FFFFFF;stroke-miterlimit:10;}
	.st7{font-size:19.4591px;}
	.st8{fill:#C7C8CA;stroke:#000000;stroke-miterlimit:10;}
	.st9{fill:#BE1E2D;stroke:#000000;stroke-miterlimit:10;}
	.st10{fill:#5688C7;stroke:#000000;stroke-miterlimit:10;}
	.st11{font-size:26.4731px;}
	.st12{font-size:22.5px;}
	.st13{font-size:13.3422px;}
</style>
<g>
	<g>
		<line class="st0" x1="88.3" y1="97.1" x2="207.3" y2="97.1"/>
		<line class="st0" x1="88.3" y1="90.5" x2="207.3" y2="88"/>
		<line class="st1" x1="88.3" y1="103.4" x2="207.3" y2="105.8"/>
		<line class="st0" x1="207.3" y1="79.9" x2="207.3" y2="105.8"/>
		<line class="st0" x1="322.6" y1="97.1" x2="203.6" y2="97.1"/>
		<line class="st0" x1="322.6" y1="90.5" x2="203.6" y2="88"/>
		<line class="st1" x1="322.6" y1="103.4" x2="203.6" y2="105.8"/>
		<line class="st1" x1="322.6" y1="82.5" x2="322.6" y2="103.4"/>
		<line class="st1" x1="88.3" y1="82.4" x2="207.3" y2="79.9"/>
		<line class="st1" x1="323.9" y1="82.4" x2="204.9" y2="79.9"/>
		<line class="st1" x1="88.3" y1="82.4" x2="88.3" y2="103.4"/>
	</g>
	<g>
		<line class="st0" x1="390.2" y1="175" x2="385.9" y2="378.7"/>
		<line class="st0" x1="394.8" y1="175" x2="396.4" y2="380.7"/>
		<line class="st1" x1="383.5" y1="176" x2="378" y2="379.7"/>
		<line class="st1" x1="400.6" y1="176" x2="406" y2="379.7"/>
		<line class="st1" x1="378" y1="379.7" x2="406" y2="379.7"/>
		<line class="st1" x1="400.6" y1="176" x2="383.5" y2="176"/>
	</g>
	<g>
		<path class="st2" d="M450.6,374l113.5-196.6c1.7-2.9,5.8-2.9,7.4,0L685,374c1.7,2.9-0.4,6.4-3.7,6.4h-227
			C451,380.4,448.9,376.8,450.6,374z"/>
		<line class="st0" x1="567.8" y1="176.1" x2="567.8" y2="193"/>
		<line class="st0" x1="667.2" y1="368" x2="684.3" y2="377.5"/>
		<line class="st0" x1="468.2" y1="369" x2="451.3" y2="378.1"/>
		<path class="st3" d="M464.5,366.8l100.2-173.5c1.4-2.4,4.8-2.4,6.2,0l100.2,173.5c1.4,2.4-0.3,5.4-3.1,5.4H467.6
			C464.9,372.2,463.1,369.2,464.5,366.8z"/>
		<path class="st2" d="M522.6,331l40.6-70.4c2-3.5,7.2-3.5,9.2,0L613,331c2,3.5-0.5,8-4.6,8h-81.2C523.1,339,520.5,334.6,522.6,331z
			"/>
		<text transform="matrix(1 0 0 1 546.2184 361.0052)" class="st4 st5">LUNES</text>
		<text transform="matrix(-0.5208 -0.8537 0.8537 -0.5208 623.1802 305.6234)" class="st4 st5">GATO</text>
		<text transform="matrix(-0.4916 0.8708 -0.8708 -0.4916 534.926 264.7932)" class="st4 st5">VERDE</text>
	</g>
	<g>
		<path class="st2" d="M88.9,374l113.5-196.6c1.7-2.9,5.8-2.9,7.4,0L323.3,374c1.7,2.9-0.4,6.4-3.7,6.4h-227
			C89.3,380.4,87.2,376.8,88.9,374z"/>
		<line class="st0" x1="206.1" y1="176.1" x2="206.1" y2="193"/>
		<line class="st0" x1="305.4" y1="369" x2="322.6" y2="378.5"/>
		<line class="st0" x1="105.2" y1="370" x2="88.3" y2="379.1"/>
		<path class="st3" d="M102.8,366.8L203,193.3c1.4-2.4,4.8-2.4,6.2,0l100.2,173.5c1.4,2.4-0.3,5.4-3.1,5.4H105.9
			C103.2,372.2,101.4,369.2,102.8,366.8z"/>
		<path class="st2" d="M159.6,331l40.6-70.4c2-3.5,7.2-3.5,9.2,0l40.6,70.4c2,3.5-0.5,8-4.6,8h-81.2
			C160.1,339,157.6,334.6,159.6,331z"/>
		<text transform="matrix(-0.4878 -0.873 0.873 -0.4878 265.12 313.4334)" class="st4 st5">GRANDE</text>
		<text transform="matrix(1 0 0 1 177.7418 361.0062)" class="st4 st5">ROUGE</text>
		<text transform="matrix(-0.4841 0.875 -0.875 -0.4841 180.6482 250.5414)" class="st4 st5">BONJOUR</text>
	</g>
	<rect x="92" y="462.7" class="st0" width="234.3" height="8.1"/>
	<rect x="92" y="454.7" class="st1" width="234.3" height="24"/>
	<line class="st0" x1="206.1" y1="176.1" x2="31.8" y2="175"/>
	<line class="st0" x1="88.3" y1="379.1" x2="31.8" y2="378.7"/>
	<g>
		<g>
			<line class="st0" x1="51.6" y1="181" x2="51.6" y2="374.6"/>
			<g>
				<path d="M51.6,175c-1.1,2.8-2.9,6.4-4.8,8.5l4.8-1.7l4.8,1.7C54.5,181.4,52.7,177.8,51.6,175z"/>
			</g>
			<g>
				<path d="M51.6,380.7c-1.1-2.8-2.9-6.4-4.8-8.5l4.8,1.7l4.8-1.7C54.5,374.3,52.7,377.8,51.6,380.7z"/>
			</g>
		</g>
	</g>
	<rect x="31.8" y="258" class="st6" width="39.8" height="31.2"/>
	<text transform="matrix(1 0 0 1 26.7892 277.8284)" class="st4 st7">2.625”</text>
	<line class="st0" x1="92" y1="478.8" x2="93.9" y2="534.5"/>
	<line class="st0" x1="326.3" y1="470.8" x2="326.3" y2="534.5"/>
	<g>
		<g>
			<line class="st0" x1="98.1" y1="512.1" x2="314.8" y2="512.1"/>
			<g>
				<path d="M92,512.1c2.8,1.1,6.4,2.9,8.5,4.8l-1.7-4.8l1.7-4.8C98.4,509.2,94.9,511,92,512.1z"/>
			</g>
			<g>
				<path d="M320.8,512.1c-2.8,1.1-6.4,2.9-8.5,4.8l1.7-4.8l-1.7-4.8C314.5,509.2,318,511,320.8,512.1z"/>
			</g>
		</g>
	</g>
	<rect x="184.6" y="504.6" class="st6" width="34.1" height="29.8"/>
	<text transform="matrix(1 0 0 1 193.9059 519.5501)" class="st4 st7">3”</text>
	<line class="st0" x1="326.3" y1="478.8" x2="404.3" y2="478.8"/>
	<line class="st0" x1="326.3" y1="454.7" x2="404.3" y2="454.7"/>
	<g>
		<g>
			<line class="st0" x1="386.5" y1="460.8" x2="386.5" y2="472.7"/>
			<g>
				<path d="M386.5,454.7c-1.1,2.8-2.9,6.4-4.8,8.5l4.8-1.7l4.8,1.7C389.4,461.1,387.6,457.6,386.5,454.7z"/>
			</g>
			<g>
				<path d="M386.5,478.8c-1.1-2.8-2.9-6.4-4.8-8.5l4.8,1.7l4.8-1.7C389.4,472.4,387.6,475.9,386.5,478.8z"/>
			</g>
		</g>
	</g>
	<text transform="matrix(1 0 0 1 409.5836 476.1839)" class="st4 st7">.375”</text>
	<line class="st0" x1="684.3" y1="377.5" x2="767.5" y2="377.5"/>
	<line class="st0" x1="613" y1="339" x2="767.5" y2="339"/>
	<g>
		<g>
			<line class="st0" x1="743.9" y1="345" x2="743.9" y2="372.7"/>
			<g>
				<path d="M743.9,339c-1.1,2.8-2.9,6.4-4.8,8.5l4.8-1.7l4.8,1.7C746.7,345.4,744.9,341.9,743.9,339z"/>
			</g>
			<g>
				<path d="M743.9,378.7c-1.1-2.8-2.9-6.4-4.8-8.5l4.8,1.7l4.8-1.7C746.7,372.4,744.9,375.9,743.9,378.7z"/>
			</g>
		</g>
	</g>
	<text transform="matrix(1 0 0 1 751.3121 368.014)" class="st4 st7">.5”</text>
</g>
<g>
	<polygon class="st8" points="774.5,7.1 763.5,57.6 725.3,22.8 	"/>
	<polygon class="st3" points="764.6,18.2 759,43.6 739.8,26.1 	"/>
</g>
<g>
	<polygon class="st9" points="704.3,34.4 690.6,7.2 721.1,8.9 	"/>
	<polygon class="st3" points="704.8,25.7 697.9,11.9 713.2,12.8 	"/>
</g>
<g>
	<polygon class="st10" points="741.4,41.6 709.2,58.5 713.8,22.4 	"/>
	<polygon class="st3" points="731.5,41.3 715.2,49.8 717.5,31.6 	"/>
</g>
<line class="st0" x1="721.1" y1="8.9" x2="702" y2="38.5"/>
<line class="st0" x1="690.6" y1="7.2" x2="688.2" y2="10"/>
<line class="st0" x1="688.2" y1="10" x2="702" y2="38.5"/>
<line class="st0" x1="710" y1="12.6" x2="703.1" y2="22.3"/>
<line class="st0" x1="709.2" y1="58.5" x2="704.5" y2="58.5"/>
<line class="st0" x1="704.5" y1="58.5" x2="709.2" y2="27.1"/>
<line class="st0" x1="725.3" y1="22.8" x2="725.1" y2="30.3"/>
<line class="st0" x1="763.5" y1="57.6" x2="762" y2="63"/>
<line class="st0" x1="762" y1="63" x2="739.2" y2="42.8"/>
<line class="st0" x1="764.6" y1="18.2" x2="759" y2="24.2"/>
<line class="st0" x1="759" y1="24.2" x2="755.5" y2="40.4"/>
<line class="st0" x1="759" y1="24.2" x2="742.1" y2="28.2"/>
<line class="st0" x1="717.2" y1="34.4" x2="728.6" y2="42.8"/>
<text transform="matrix(1 0 0 1 564.2664 38.4416)" class="st4 st11">Tri-Lingos</text>
<text transform="matrix(1 0 0 1 15.3163 594.527)" class="st4 st12">Orthographic View</text>
<line class="st1" x1="0" y1="31.6" x2="556.6" y2="31.6"/>
<line class="st1" x1="218.5" y1="589.4" x2="792" y2="589.4"/>
<text transform="matrix(1 0 0 1 668.9998 603.6349)" class="st4 st13">Bethany Welgoss</text>
</svg>
